HIERARCHY
ROOT Hips
{
  OFFSET 5.80788e-005 67.184 3.4734
  CHANNELS 6 Xposition Yposition Zposition Zrotation Xrotation Yrotation
  JOINT Chest
  {
    OFFSET 0 8.7983 -4.7612
    CHANNELS 3 Zrotation Xrotation Yrotation
    JOINT Chest2
    {
      OFFSET 0 8.0291 0.4195
      CHANNELS 3 Zrotation Xrotation Yrotation
      JOINT Chest3
      {
        OFFSET 0 9.9351 -2.2114
        CHANNELS 3 Zrotation Xrotation Yrotation
        JOINT Neck
        {
          OFFSET 0 22.3885 -0.4656
          CHANNELS 3 Zrotation Xrotation Yrotation
          JOINT Head
          {
            OFFSET -0.0001 12.643 3.4389
            CHANNELS 3 Zrotation Xrotation Yrotation
            End Site
            {
              OFFSET 0.0001 17.6655 0.5274
            }
          }
        }
        JOINT LeftCollar
        {
          OFFSET 2.2603 21.606 7.4023
          CHANNELS 3 Zrotation Xrotation Yrotation
          JOINT LeftShoulder
          {
            OFFSET 13.5163 -1.1332 -5.0146
            CHANNELS 3 Zrotation Xrotation Yrotation
            JOINT LeftElbow
            {
              OFFSET -0.0995 -28.05 -0.2431
              CHANNELS 3 Zrotation Xrotation Yrotation
              JOINT LeftWrist
              {
                OFFSET 0.0679 -23.3996 -0.1402
                CHANNELS 3 Zrotation Xrotation Yrotation
                JOINT LeftFinger1
                {
                  OFFSET 0.7932 -9.069 2.5189
                  CHANNELS 3 Zrotation Xrotation Yrotation
                  JOINT LeftFinger11
                  {
                    OFFSET -0.8272 -3.3923 0.5977
                    CHANNELS 3 Zrotation Xrotation Yrotation
                    JOINT LeftFinger12
                    {
                      OFFSET -0.5649 -2.3158 0.4082
                      CHANNELS 3 Zrotation Xrotation Yrotation
                      End Site
                      {
                        OFFSET -0.4919 -1.6479 0.2673
                      }
                    }
                  }
                }
                JOINT LeftFinger2
                {
                  OFFSET 0.9159 -9.2044 0.2193
                  CHANNELS 3 Zrotation Xrotation Yrotation
                  JOINT LeftFinger21
                  {
                    OFFSET 0.0117 -4.1944 -0.0248
                    CHANNELS 3 Zrotation Xrotation Yrotation
                    JOINT LeftFinger22
                    {
                      OFFSET 0.0071 -2.3249 -0.0142
                      CHANNELS 3 Zrotation Xrotation Yrotation
                      End Site
                      {
                        OFFSET -0.1475 -2.0882 0.0028
                      }
                    }
                  }
                }
                JOINT LeftFinger3
                {
                  OFFSET 0.6113 -8.7231 -2.0637
                  CHANNELS 3 Zrotation Xrotation Yrotation
                  JOINT LeftFinger31
                  {
                    OFFSET -0.1927 -3.8059 -0.2383
                    CHANNELS 3 Zrotation Xrotation Yrotation
                    JOINT LeftFinger32
                    {
                      OFFSET -0.1091 -2.1688 -0.1362
                      CHANNELS 3 Zrotation Xrotation Yrotation
                      End Site
                      {
                        OFFSET -0.2358 -1.9176 -0.0906
                      }
                    }
                  }
                }
                JOINT LeftFinger4
                {
                  OFFSET -0.6151 -8.0947 -3.5641
                  CHANNELS 3 Zrotation Xrotation Yrotation
                  JOINT LeftFinger41
                  {
                    OFFSET -0.4882 -2.341 -0.6462
                    CHANNELS 3 Zrotation Xrotation Yrotation
                    JOINT LeftFinger42
                    {
                      OFFSET -0.3575 -1.7167 -0.4742
                      CHANNELS 3 Zrotation Xrotation Yrotation
                      End Site
                      {
                        OFFSET -0.4187 -1.5237 -0.3496
                      }
                    }
                  }
                }
                JOINT LeftFinger0
                {
                  OFFSET -1.42 -1.8761 1.4223
                  CHANNELS 3 Zrotation Xrotation Yrotation
                  JOINT LeftFinger01
                  {
                    OFFSET -1.1471 -3.4929 2.6334
                    CHANNELS 3 Zrotation Xrotation Yrotation
                    JOINT LeftFinger02
                    {
                      OFFSET -0.823 -2.3 1.6571
                      CHANNELS 3 Zrotation Xrotation Yrotation
                      End Site
                      {
                        OFFSET -0.5822 -1.6914 1.1582
                      }
                    }
                  }
                }
              }
            }
          }
        }
        JOINT RightCollar
        {
          OFFSET -2.2603 21.606 7.4023
          CHANNELS 3 Zrotation Xrotation Yrotation
          JOINT RightShoulder
          {
            OFFSET -13.5187 -1.1334 -5.0155
            CHANNELS 3 Zrotation Xrotation Yrotation
            JOINT RightElbow
            {
              OFFSET 0.0994 -28.0499 -0.2431
              CHANNELS 3 Zrotation Xrotation Yrotation
              JOINT RightWrist
              {
                OFFSET -0.0679 -23.3996 -0.1402
                CHANNELS 3 Zrotation Xrotation Yrotation
                JOINT RightFinger1
                {
                  OFFSET -0.7932 -9.0691 2.5189
                  CHANNELS 3 Zrotation Xrotation Yrotation
                  JOINT RightFinger11
                  {
                    OFFSET 0.8272 -3.3923 0.5977
                    CHANNELS 3 Zrotation Xrotation Yrotation
                    JOINT RightFinger12
                    {
                      OFFSET 0.565 -2.3158 0.4082
                      CHANNELS 3 Zrotation Xrotation Yrotation
                      End Site
                      {
                        OFFSET 0.4919 -1.6479 0.2673
                      }
                    }
                  }
                }
                JOINT RightFinger2
                {
                  OFFSET -0.916 -9.2044 0.2193
                  CHANNELS 3 Zrotation Xrotation Yrotation
                  JOINT RightFinger21
                  {
                    OFFSET -0.0117 -4.1944 -0.0248
                    CHANNELS 3 Zrotation Xrotation Yrotation
                    JOINT RightFinger22
                    {
                      OFFSET -0.0071 -2.3249 -0.0142
                      CHANNELS 3 Zrotation Xrotation Yrotation
                      End Site
                      {
                        OFFSET 0.1475 -2.0882 0.0028
                      }
                    }
                  }
                }
                JOINT RightFinger3
                {
                  OFFSET -0.6113 -8.7231 -2.0637
                  CHANNELS 3 Zrotation Xrotation Yrotation
                  JOINT RightFinger31
                  {
                    OFFSET 0.1927 -3.8059 -0.2383
                    CHANNELS 3 Zrotation Xrotation Yrotation
                    JOINT RightFinger32
                    {
                      OFFSET 0.1091 -2.1688 -0.1362
                      CHANNELS 3 Zrotation Xrotation Yrotation
                      End Site
                      {
                        OFFSET 0.2358 -1.9176 -0.0906
                      }
                    }
                  }
                }
                JOINT RightFinger4
                {
                  OFFSET 0.6151 -8.0947 -3.564
                  CHANNELS 3 Zrotation Xrotation Yrotation
                  JOINT RightFinger41
                  {
                    OFFSET 0.4882 -2.341 -0.6462
                    CHANNELS 3 Zrotation Xrotation Yrotation
                    JOINT RightFinger42
                    {
                      OFFSET 0.3574 -1.7166 -0.4742
                      CHANNELS 3 Zrotation Xrotation Yrotation
                      End Site
                      {
                        OFFSET 0.4187 -1.5237 -0.3496
                      }
                    }
                  }
                }
                JOINT RightFinger0
                {
                  OFFSET 1.4199 -1.8761 1.4221
                  CHANNELS 3 Zrotation Xrotation Yrotation
                  JOINT RightFinger01
                  {
                    OFFSET 1.1472 -3.4929 2.6336
                    CHANNELS 3 Zrotation Xrotation Yrotation
                    JOINT RightFinger02
                    {
                      OFFSET 0.8229 -2.3 1.6571
                      CHANNELS 3 Zrotation Xrotation Yrotation
                      End Site
                      {
                        OFFSET 0.5822 -1.6914 1.1582
                      }
                    }
                  }
                }
              }
            }
          }
        }
      }
    }
  }
  JOINT RightHip
  {
    OFFSET -9.412 3.9771 -0.7758
    CHANNELS 3 Zrotation Xrotation Yrotation
    JOINT RightKnee
    {
      OFFSET -0.7531 -40.938 0
      CHANNELS 3 Zrotation Xrotation Yrotation
      JOINT RightAnkle
      {
        OFFSET 0 -40.1986 0
        CHANNELS 3 Zrotation Xrotation Yrotation
        JOINT RightToe
        {
          OFFSET 0 -4.4182 9.239
          CHANNELS 3 Zrotation Xrotation Yrotation
          End Site
          {
            OFFSET 0 0 6.1981
          }
        }
      }
    }
  }
  JOINT LeftHip
  {
    OFFSET 9.4119 3.9773 -0.7758
    CHANNELS 3 Zrotation Xrotation Yrotation
    JOINT LeftKnee
    {
      OFFSET 0.7532 -40.9383 0
      CHANNELS 3 Zrotation Xrotation Yrotation
      JOINT LeftAnkle
      {
        OFFSET 0 -40.1986 0
        CHANNELS 3 Zrotation Xrotation Yrotation
        JOINT LeftToe
        {
          OFFSET 0 -4.4182 9.239
          CHANNELS 3 Zrotation Xrotation Yrotation
          End Site
          {
            OFFSET 0 0 6.1981
          }
        }
      }
    }
  }
}
MOTION
Frames:	5
Frame Time:	0.0333333
5.80788e-005 67.184 3.4734 0 0 -0 0 0 -0 0 0 -0 0 0 -0 0 0 -0 0 0 -0 0 0 -12.5014 88.1196 14.2451 10.6914 -0.00160068 -0.00239207 0.000740045 -8.4365e-005 7.00714e-005 -9.52055e-007 9.93923e-017 -1.98785e-016 -1.59028e-015 9.93923e-017 -5.96354e-016 -1.59028e-015 -9.93923e-017 -5.96354e-016 -1.59028e-015 9.93923e-017 -1.98785e-016 -1.59028e-015 -0.0128176 0.00232552 8.52707e-005 9.93923e-017 5.96354e-016 -0 9.93923e-017 -1.98785e-016 -1.59028e-015 -0.0160551 0.00299681 0.000857156 -2.48481e-016 0 3.18055e-015 9.93923e-017 -1.98785e-016 -1.59028e-015 -0.0125865 0.0031206 0.00282719 0 1.98785e-016 -0 9.93923e-017 -1.98785e-016 -1.59028e-015 9.93923e-017 -5.96354e-016 -1.59028e-015 -9.93923e-017 -5.96354e-016 -1.59028e-015 -0.865644 0.16582 7.03859 -88.0329 10.2057 -10.5567 0.0015593 -0.00248883 -0.000788628 7.87605e-005 4.10553e-005 1.24965e-005 -3.97569e-016 -7.95139e-016 3.18055e-015 -1.98785e-016 -3.97569e-016 3.18055e-015 -1.98785e-016 0 3.18055e-015 -3.97569e-016 -7.95139e-016 3.18055e-015 0.0129473 0.00231697 -8.70038e-005 9.93923e-017 -7.95139e-016 1.59028e-015 -3.97569e-016 -7.95139e-016 3.18055e-015 0.0163314 0.00303369 -0.000872333 3.97569e-016 7.95139e-016 -3.18055e-015 -3.97569e-016 -7.95139e-016 3.18055e-015 0.0145763 0.00367772 -0.00326275 9.93923e-017 -3.97569e-016 -0 -3.97569e-016 -7.95139e-016 3.18055e-015 -1.98785e-016 -3.97569e-016 3.18055e-015 -1.98785e-016 0 3.18055e-015 3.42485 1.36937 -0.0640303 0.000136572 0.69354 0.00145564 -3.42573 -2.06297 -0.0607933 -3.19502e-024 0 -1.48106e-024 -3.42498 1.36123 0.0639712 -6.769e-005 0.712612 -0.0012277 3.42582 -2.07388 0.0612819 2.55305e-023 0 -2.31416e-026 
-0.0724722 14.4929 0.751703 -3.97613 16.308 -166.097 -0.670994 22.3207 0.06461 -1.57784 44.6387 0.506731 -1.57782 44.6384 0.506722 4.22201e-005 -20.4898 5.4989e-006 1.69763e-006 -2.28334 -5.02335e-008 -5.23788 -23.8257 -4.37144 -17.0726 -57.5428 -68.1705 49.7056 -28.6559 23.8783 24.8566 -3.90761 -20.8279 -4.41391e-031 -1.59028e-014 -1.59028e-015 -1.66982e-006 -9.21511e-007 1.50885e-006 2.35439e-006 5.78228e-006 5.43965e-006 -4.41391e-031 -1.59028e-014 -1.59028e-015 -0.0128142 0.00232965 8.52559e-005 7.95139e-016 0 5.56597e-015 -4.41391e-031 -1.59028e-014 -1.59028e-015 -0.016083 0.00298996 0.000862747 3.18055e-015 -6.36111e-015 4.77083e-015 -4.41391e-031 -1.59028e-014 -1.59028e-015 -0.0125948 0.00311826 0.00283268 -7.15625e-015 -1.27222e-014 -2.38542e-015 -4.41391e-031 -1.59028e-014 -1.59028e-015 -1.66982e-006 -9.21511e-007 1.50885e-006 2.35439e-006 5.78228e-006 5.43965e-006 3.48223 -22.5282 -2.62535 20.3005 -56.9426 73.2351 -50.8535 -29.0423 -26.0167 -20.3278 -0.218565 17.5232 -9.54166e-015 6.36111e-015 -0 4.6249e-006 3.6908e-006 8.56628e-006 -6.36111e-015 -3.18055e-015 -6.36111e-015 -9.54166e-015 6.36111e-015 -0 0.0129331 0.00232712 -9.17222e-005 9.54166e-015 -3.18055e-015 -1.11319e-014 -9.54166e-015 6.36111e-015 -0 0.0163321 0.00304284 -0.000873432 0 0 -3.18055e-015 -9.54166e-015 6.36111e-015 -0 0.0145383 0.00367476 -0.00324765 0 0 -3.18055e-015 -9.54166e-015 6.36111e-015 -0 4.6249e-006 3.6908e-006 8.56628e-006 -6.36111e-015 -3.18055e-015 -6.36111e-015 -37.8966 -13.2093 2.17356 -171.829 49.3461 169.153 15.7311 44.0204 10.5506 1.10481e-006 -5.20437e-007 1.21923e-006 39.6373 -13.8807 -3.75767 171.609 51.1898 -169.135 -14.3102 46.7556 -13.1951 -2.1581e-006 -6.57197e-006 -5.18449e-006 
0.9728 17.6894 0.771702 -8.67993e-015 13.3351 -180 -0.615926 20.0284 0.055974 -1.397 40.0548 0.400266 -1.39699 40.0545 0.400257 5.93625e-005 -19.5165 6.03229e-006 -4.68707e-007 -2.85675 -5.08668e-007 -5.00537 -21.6476 -5.27902 -10.6443 -52.4994 -62.6736 43.8919 -25.2938 20.9092 23.7622 -4.53552 -18.8104 6.36111e-015 0 -0 6.36111e-015 0 -3.18055e-015 -6.36111e-015 3.18055e-015 -3.18055e-015 6.36111e-015 0 -0 -0.012845 0.00232681 9.12328e-005 2.64834e-031 3.18055e-015 -4.77083e-015 6.36111e-015 0 -0 -0.0160351 0.00298654 0.000856474 6.61233e-006 -1.78608e-006 -1.14143e-006 6.36111e-015 0 -0 -0.0125717 0.00310404 0.00282035 -6.36111e-015 9.54166e-015 -0 6.36111e-015 0 -0 6.36111e-015 0 -3.18055e-015 -6.36111e-015 3.18055e-015 -3.18055e-015 3.37574 -20.4821 -1.55787 13.4759 -52.294 67.6559 -44.8758 -25.6964 -22.767 -19.4506 -1.20697 15.8505 -7.83438e-006 2.13739e-006 8.8068e-006 -2.47198e-006 2.24386e-006 -1.56176e-005 -2.96524e-006 -9.02449e-007 1.7766e-005 -7.83438e-006 2.13739e-006 8.8068e-006 0.0129357 0.00230463 -9.66862e-005 -2.86091e-006 2.21637e-006 3.85101e-006 -7.83438e-006 2.13739e-006 8.8068e-006 0.0163387 0.00303668 -0.000873032 9.54166e-015 0 9.54166e-015 -7.83438e-006 2.13739e-006 8.8068e-006 0.0145752 0.00367861 -0.00327567 2.83205e-006 2.52898e-006 1.08547e-005 -7.83438e-006 2.13739e-006 8.8068e-006 -2.47198e-006 2.24386e-006 -1.56176e-005 -2.96524e-006 -9.02449e-007 1.7766e-005 -35.6394 -14.3929 2.54069 -172.177 57.4648 170.004 14.6319 40.7555 10.6533 -3.73209e-006 -3.27611e-006 2.81161e-007 37.2543 -14.9475 -3.95867 172.023 59.1737 -169.961 -13.6323 43.2755 -12.8776 6.94663e-006 -1.04022e-007 3.44638e-007 
0.97247 17.3236 1.20942 -8.40544e-015 11.1952 -180 -0.607249 19.3205 0.0383584 -1.35716 38.6394 0.341913 -1.35714 38.6391 0.341905 6.16813e-005 -19.9276 6.51785e-006 -3.83337e-007 -3.5418 -6.13539e-008 -4.90461 -21.1208 -5.51848 -10.5691 -52.8571 -62.4889 41.9171 -23.8068 19.9327 24.363 -5.35447 -18.2023 7.28928e-006 2.12283e-006 -3.78785e-006 3.40201e-006 1.68928e-006 -9.81266e-007 -2.72529e-006 -6.07324e-007 -1.65555e-006 7.28928e-006 2.12283e-006 -3.78785e-006 -0.0128188 0.00232154 8.58474e-005 9.23402e-006 4.17252e-006 -5.19077e-006 7.28928e-006 2.12283e-006 -3.78785e-006 -0.0160648 0.00299587 0.000861712 4.56505e-006 1.67851e-006 -5.4432e-006 7.28928e-006 2.12283e-006 -3.78785e-006 -0.0125606 0.00311046 0.0028197 6.61342e-006 6.41588e-006 -1.15085e-006 7.28928e-006 2.12283e-006 -3.78785e-006 3.40201e-006 1.68928e-006 -9.81266e-007 -2.72529e-006 -6.07324e-007 -1.65555e-006 3.31193 -19.9975 -1.27251 13.6113 -52.5984 67.6258 -42.8596 -24.2153 -21.6541 -19.947 -2.13327 15.3764 9.54166e-015 3.18055e-015 4.77083e-015 4.13677e-006 2.42919e-006 1.16991e-005 4.13676e-006 1.33901e-006 1.16991e-005 9.54166e-015 3.18055e-015 4.77083e-015 0.0129579 0.00230768 -7.51225e-005 -6.36111e-015 0 -1.59028e-015 9.54166e-015 3.18055e-015 4.77083e-015 0.0163643 0.00303534 -0.000878967 8.54868e-006 2.13865e-006 1.78449e-005 9.54166e-015 3.18055e-015 4.77083e-015 0.0146322 0.00368702 -0.00326918 5.15519e-006 -1.80852e-006 3.39774e-006 9.54166e-015 3.18055e-015 4.77083e-015 4.13677e-006 2.42919e-006 1.16991e-005 4.13676e-006 1.33901e-006 1.16991e-005 -36.0654 -16.569 2.63896 -173.807 56.983 171.214 14.2222 40.9437 11.8221 -7.38347e-006 -1.22848e-005 3.29024e-006 37.6463 -17.0682 -4.07809 173.776 58.7027 -171.274 -13.2398 43.445 -14.069 -5.40954e-006 2.14776e-006 -2.87534e-006 
0.972149 16.9657 1.65408 -8.1341e-015 9.04825 -180 -0.598773 18.6099 0.0209763 -1.31979 37.2185 0.285891 -1.31978 37.2182 0.285884 6.21213e-005 -20.3388 8.21433e-006 5.56384e-007 -4.2281 6.15559e-007 -4.80182 -20.5941 -5.75814 -10.4916 -53.2146 -62.3022 39.9859 -22.2856 19.0201 24.9739 -6.16769 -17.5842 -6.36111e-015 -3.18055e-015 6.36111e-015 5.29669e-031 -3.18055e-015 9.54166e-015 1.23589e-030 -6.36111e-015 1.11319e-014 -6.36111e-015 -3.18055e-015 6.36111e-015 -0.0128436 0.00233371 8.83523e-005 -0 0 1.59028e-015 -6.36111e-015 -3.18055e-015 6.36111e-015 -0.0160898 0.00300186 0.000866619 1.52641e-005 5.88907e-006 -4.12993e-006 -6.36111e-015 -3.18055e-015 6.36111e-015 -0.012628 0.0031194 0.00283549 -0 0 6.36111e-015 -6.36111e-015 -3.18055e-015 6.36111e-015 5.29669e-031 -3.18055e-015 9.54166e-015 1.23589e-030 -6.36111e-015 1.11319e-014 3.24575 -19.5131 -0.987379 13.7476 -52.9028 67.5969 -40.8923 -22.6956 -20.6079 -20.4519 -3.05619 14.8936 -1.24192e-005 8.5689e-006 9.03659e-006 1.58222e-005 -6.49867e-006 -9.29918e-006 -1.45325e-005 7.98336e-006 1.01464e-005 -1.24192e-005 8.5689e-006 9.03659e-006 0.0129941 0.00231706 -8.99602e-005 3.18055e-015 -9.54166e-015 1.59028e-015 -1.24192e-005 8.5689e-006 9.03659e-006 0.0163719 0.00303334 -0.000882539 0 0 -7.95139e-015 -1.24192e-005 8.5689e-006 9.03659e-006 0.0146299 0.00367763 -0.00328153 1.28956e-006 3.72702e-006 8.47316e-007 -1.24192e-005 8.5689e-006 9.03659e-006 1.58222e-005 -6.49867e-006 -9.29918e-006 -1.45325e-005 7.98336e-006 1.01464e-005 -36.4861 -18.7492 2.72167 -175.396 56.4834 172.381 13.8099 41.1221 12.994 1.76556e-031 -3.18055e-015 3.18055e-015 38.0321 -19.1925 -4.18409 175.483 58.2118 -172.541 -12.8451 43.6052 -15.2633 2.62627e-006 2.82122e-007 -1.38919e-006 
